<?xml version="1.0" encoding="utf-8"?>
<!-- Generator: Adobe Illustrator 19.2.1, SVG Export Plug-In . SVG Version: 6.00 Build 0)  -->
<svg version="1.1" id="Layer_1" xmlns="http://www.w3.org/2000/svg" xmlns:xlink="http://www.w3.org/1999/xlink" x="0px" y="0px"
	 viewBox="0 0 150 150" style="enable-background:new 0 0 150 150;" xml:space="preserve">
<style type="text/css">
	.st0{fill:#57B6DD;}
	.st1{fill:#65C8E7;}
</style>
<g>
	<path class="st0" d="M47.2,75.5c0,0-20.4,3.4-18.2,10s18.5,1.2,18.5,1.2L47.2,75.5z"/>
	<path class="st0" d="M102.8,76.8c0,0,20.4,3.4,18.2,10S102.5,88,102.5,88L102.8,76.8z"/>
	<path class="st0" d="M59.3,130.7c3.8,2,11.9-10.5,11.9-10.5L61,116.1C61,116.1,54.2,128,59.3,130.7z"/>
	<path class="st0" d="M92.6,130.7c-3.8,2-11.9-10.5-11.9-10.5l10.2-4.1C90.9,116.1,97.8,128,92.6,130.7z"/>
	<path class="st1" d="M101,24.7c0,0-8-1.5-7.7,6.6c0.4,8,16.8,39,16.4,54.3c-0.4,15.3-13.9,41.6-39,38.6
		C45.5,121.3,42.2,93.6,43,80.8C44.5,60.5,78.4,0.7,101,24.7z"/>
</g>
</svg>
