<?xml version="1.0" encoding="utf-8"?>
<!-- Generator: Adobe Illustrator 19.2.1, SVG Export Plug-In . SVG Version: 6.00 Build 0)  -->
<svg version="1.1" id="Layer_1" xmlns="http://www.w3.org/2000/svg" xmlns:xlink="http://www.w3.org/1999/xlink" x="0px" y="0px"
	 viewBox="0 0 150 150" style="enable-background:new 0 0 150 150;" xml:space="preserve">
<style type="text/css">
	.st0{fill:#5E4019;}
	.st1{fill:#7A5222;}
</style>
<g>
	<path class="st0" d="M51.7,113.5c0,0-3.4,12.2,4.9,12.3c8.3,0.1,5.1-12.3,5.1-12.3H51.7z"/>
	<path class="st0" d="M87.5,113.6c0,0-3.4,12.2,4.9,12.3c8.3,0.1,5.1-12.3,5.1-12.3H87.5z"/>
	<path class="st0" d="M49.8,63.6c0,0-26.9,16.4-22.3,23.5c4.6,7,23-13.5,23-13.5L49.8,63.6z"/>
	<path class="st0" d="M99.5,75.6l0.7-10"/>
	<path class="st1" d="M74.4,60c24.6,0.4,26,4.8,28.1,7.4c2.1,2.5,10.3,45.7-1.3,48.8c-11.4,3.1-47.3,2.5-54.9-1.3
		c-7.6-3.9-2.6-44.4,3.2-49.2C53.8,62,61.9,59.8,74.4,60z"/>
	<path class="st0" d="M99,74.3c0,0,18.4,20.5,23,13.5c4.6-7.1-22.3-23.5-22.3-23.5"/>
</g>
<g>
	<path class="st0" d="M43.6,62.2c0,0-7.1,8-4.6,9.6c2.4,1.6,7.1-3.5,7.1-3.5L43.6,62.2z"/>
	<path class="st0" d="M62,58.5c0,0,10.3,2.9,9,5.5c-1.4,2.6-7.9,0.4-7.9,0.4L62,58.5z"/>
	<path class="st0" d="M57.4,66.5c0,0,4.9,5.8,7.8,3.8s-3-7.2-3-7.2L57.4,66.5z"/>
	<path class="st0" d="M50.9,65.6c0,0,1.1,8.4,5,8.4c3.9-0.1,1.6-8.6,1.6-8.6L50.9,65.6z"/>
	<path class="st0" d="M52,67.7c0,0-2.1,7.3-5.5,6.7s-0.3-7.8-0.3-7.8L52,67.7z"/>
	<path class="st0" d="M47.3,58.5c0,0-7.7,6.3-4.3,8.9c2.9,2.2,6.1,2.1,11.5,0.9s14.7-6.1,12-8C63.2,58,55.3,56,55.3,56L47.3,58.5z"
		/>
	<path class="st1" d="M23.1,44.4c-2.1-11.9,9.8-24.3,22-26.2c14.4-2.2,27.6,5,29.8,16.9c2.1,11.9,2.7,21.6-22,26.2
		C28.5,65.9,25.2,56.3,23.1,44.4z"/>
</g>
<g>
	<path class="st0" d="M87.7,59.7c0,0-10.2,3.2-8.9,5.8c1.2,2.6,7.9,0.6,7.9,0.6L87.7,59.7z"/>
	<path class="st0" d="M105.4,66c0,0,7.4,7.8,4.9,9.3c-2.5,1.5-6.9-3.8-6.9-3.8L105.4,66z"/>
	<path class="st0" d="M97.2,70.5c0,0,1.2,7.5,4.7,7.3c3.5-0.2,1.1-7.7,1.1-7.7L97.2,70.5z"/>
	<path class="st0" d="M92.2,66.3c0,0-3.4,7.8,0,9.8c3.4,1.9,5.8-6.6,5.8-6.6L92.2,66.3z"/>
	<path class="st0" d="M92.1,68.8c0,0-5.5,5.2-8.2,2.9s3.8-6.8,3.8-6.8L92.1,68.8z"/>
	<path class="st0" d="M92.8,58.4c0,0-9.8,1.4-8.3,5.4c1.3,3.4,4.2,5,9.3,6.7c5.2,1.8,15.8,2.4,14.4-0.6c-1.6-3.7-7.3-9.5-7.3-9.5
		L92.8,58.4z"/>
	<path class="st1" d="M79.3,33.9c4.3-11.3,20.9-15.7,32.4-11c13.5,5.5,21,18.6,16.7,29.8c-4.3,11.3-8.8,19.9-32.4,11
		C72.9,55,75,45.1,79.3,33.9z"/>
</g>
</svg>
