<?xml version="1.0" encoding="utf-8"?>
<!-- Generator: Adobe Illustrator 19.2.1, SVG Export Plug-In . SVG Version: 6.00 Build 0)  -->
<svg version="1.1" id="Layer_1" xmlns="http://www.w3.org/2000/svg" xmlns:xlink="http://www.w3.org/1999/xlink" x="0px" y="0px"
	 viewBox="0 0 150 150" style="enable-background:new 0 0 150 150;" xml:space="preserve">
<style type="text/css">
	.st0{fill:#75BF43;}
	.st1{fill:#8BC53F;}
</style>
<g>
	<path class="st0" d="M37.6,67.9c0,0-17.7,7.3-15.7,12.6S39,78.9,39,78.9L37.6,67.9z"/>
	<path class="st0" d="M112.4,67.9c0,0,17.7,7.3,15.7,12.6S111,78.9,111,78.9L112.4,67.9z"/>
	<path class="st0" d="M70.7,99.2c0,0,0.7,13.3-1.5,15.7s-18.8,4.9-19-1.3s8.2-4.4,8.2-4.4l0.7-10.8L70.7,99.2z"/>
	<path class="st0" d="M80.9,99.4c0,0-0.7,13.3,1.5,15.7s18.8,4.9,19-1.3s-8.2-4.4-8.2-4.4l-0.7-10.8L80.9,99.4z"/>
	<path class="st1" d="M75.4,32.4c18.5,0,32.8,0.2,35.7,7s8.3,52.3,0,57.1c-8,4.6-16,4.6-35.2,5.1s-28.3,0.2-36.7-5.6
		c-7-4.9-5.6-54,0.5-58.8C45.9,32.4,75.4,32.4,75.4,32.4z"/>
</g>
</svg>
