<?xml version="1.0" encoding="utf-8"?>
<!-- Generator: Adobe Illustrator 19.2.1, SVG Export Plug-In . SVG Version: 6.00 Build 0)  -->
<svg version="1.1" id="Layer_1" xmlns="http://www.w3.org/2000/svg" xmlns:xlink="http://www.w3.org/1999/xlink" x="0px" y="0px"
	 viewBox="0 0 150 150" style="enable-background:new 0 0 150 150;" xml:space="preserve">
<style type="text/css">
	.st0{fill:#FFA480;}
</style>
<path class="st0" d="M75.6,23.8c27.7,0.3,33.2,38.3,33.2,38.3s-1.3,0-5.7-1.8c0,0,4.7,11.7,7.8,16.1l-5.4-0.3c0,0,4.9,16.1,7,18.1
	l-4.1-0.3c0,0,5.2,11.4,7.3,13.2l-3.9,1.6c0,0,3.9,7,3.1,10.6s-12.4,7.5-17.6,6.7s-13-5.4-18.4-5.4S63,125,57.3,124
	s-10.9-7.8-14.5-6.5s-8.5,3.1-8.5,3.1s3.9-9.8,6.2-11.1l-4.4-2.3c0,0,5.7-7.5,8.8-13.2L40,94.5c0,0,5.2-10.6,6.7-17.4h-4.9
	c0,0,6-11.7,7-15.5l-5.2,0.5C43.5,62.1,48.4,23.5,75.6,23.8z"/>
</svg>
