<?xml version="1.0" encoding="utf-8"?>
<!-- Generator: Adobe Illustrator 19.2.1, SVG Export Plug-In . SVG Version: 6.00 Build 0)  -->
<svg version="1.1" id="Layer_1" xmlns="http://www.w3.org/2000/svg" xmlns:xlink="http://www.w3.org/1999/xlink" x="0px" y="0px"
	 viewBox="0 0 150 150" style="enable-background:new 0 0 150 150;" xml:space="preserve">
<style type="text/css">
	.st0{fill:#D680B4;}
	.st1{fill:#E29FC4;}
</style>
<g>
	<path class="st0" d="M57.9,99.4c0,0-14.7,10.8-11.2,14.3c3.4,3.5,13.1-3.3,13.1-3.3L57.9,99.4z"/>
	<path class="st0" d="M90,99.7c0,0,16.2,8.6,13,12.4s-13.3-2.3-13.3-2.3L90,99.7z"/>
	<path class="st0" d="M79.3,111.4c0,0,6.1,11.4,11.6,9.2s-2.4-13.1-2.4-13.1L79.3,111.4z"/>
	<path class="st0" d="M68.9,107.6c0,0-1.2,14.4,5.3,15.8c6.5,1.3,5.8-13.8,5.8-13.8L68.9,107.6z"/>
	<path class="st0" d="M70,111.6c0,0-6.1,11.4-11.6,9.2s2.4-13.1,2.4-13.1L70,111.6z"/>
	<path class="st0" d="M65.4,94.4c0,0-15.1,7.7-10.4,13.3c4,4.8,9.5,5.7,18.8,5.7s26.8-4.8,23-8.9c-4.7-5.1-17-11.4-17-11.4
		L65.4,94.4z"/>
	<path class="st1" d="M30.2,62.2C31,41.6,55.4,25.3,76.5,26.6c24.8,1.5,44.2,18.4,43.5,39c-0.8,20.6-3.3,37-46.3,35.6
		C31.4,99.8,29.4,82.8,30.2,62.2z"/>
</g>
</svg>
