<?xml version="1.0" encoding="utf-8"?>
<!-- Generator: Adobe Illustrator 19.2.1, SVG Export Plug-In . SVG Version: 6.00 Build 0)  -->
<svg version="1.1" id="Layer_1" xmlns="http://www.w3.org/2000/svg" xmlns:xlink="http://www.w3.org/1999/xlink" x="0px" y="0px"
	 viewBox="0 0 150 150" style="enable-background:new 0 0 150 150;" xml:space="preserve">
<style type="text/css">
	.st0{fill:#2A2CFF;}
	.st1{fill:#68199B;}
	.st2{fill:#DDCB17;}
	.st3{fill:url(#SVGID_1_);}
</style>
<g>
	<path class="st0" d="M61.7,101.5c0,0-3.4,24.6,4.9,24.8c8.3,0.2,5.1-24.8,5.1-24.8H61.7z"/>
	<path class="st1" d="M77.5,101.8c0,0-3.4,24.6,4.9,24.8c8.3,0.2,5.1-24.8,5.1-24.8H77.5z"/>
	<path class="st2" d="M49.8,63.6c0,0-18,8.5-13.4,15.6c4.6,7,14.1-5.6,14.1-5.6L49.8,63.6z"/>
	<path class="st0" d="M100.2,63.6c0,0,18,8.5,13.4,15.6c-4.6,7-14.1-5.6-14.1-5.6L100.2,63.6z"/>
	<linearGradient id="SVGID_1_" gradientUnits="userSpaceOnUse" x1="104.4467" y1="96.6682" x2="46.1143" y2="38.3358">
		<stop  offset="0" style="stop-color:#65007F"/>
		<stop  offset="0.2279" style="stop-color:#2A2CFF"/>
		<stop  offset="0.5004" style="stop-color:#007F21"/>
		<stop  offset="0.678" style="stop-color:#DDCB17"/>
		<stop  offset="0.7214" style="stop-color:#E1C217"/>
		<stop  offset="0.791" style="stop-color:#EEAB16"/>
		<stop  offset="0.8674" style="stop-color:#FF8A15"/>
		<stop  offset="1" style="stop-color:#E91A00"/>
	</linearGradient>
	<path class="st3" d="M74.5,23.5C95.6,24,96.8,30.3,98.6,34c1.8,3.6,8.8,64.9-1.1,69.3c-9.8,4.4-40.5,3.6-47-1.8
		C44,96,48.3,38.4,53.2,31.6C56.8,26.4,63.8,23.2,74.5,23.5z"/>
</g>
</svg>
