<?xml version="1.0" encoding="utf-8"?>
<!-- Generator: Adobe Illustrator 19.2.1, SVG Export Plug-In . SVG Version: 6.00 Build 0)  -->
<svg version="1.1" id="Layer_1" xmlns="http://www.w3.org/2000/svg" xmlns:xlink="http://www.w3.org/1999/xlink" x="0px" y="0px"
	 viewBox="0 0 80 80" style="enable-background:new 0 0 80 80;" xml:space="preserve">
<style type="text/css">
	.st0{fill:#1A1A1A;}
</style>
<g>
	<g>
		<path class="st0" d="M10.7,45.1L10.7,45.1L10.7,45.1L10.7,45.1L10.7,45.1L10.7,45.1z M7.7,44.5c0,0,0.6-2.3,2.1-4.7l0,0
			c1.5-2.3,4.5-4.9,8.7-4.9l0,0c0.2,0,0.2,0,0.4,0l0,0c3.6,0.2,6.4,2.6,7.9,4.7l0,0c1.5,2.1,2.3,4,2.3,4.2l0,0l-3,1.1
			c0,0-0.2-0.4-0.4-1.1l0,0c-0.2-0.6-0.9-1.5-1.5-2.3l0,0c-1.3-1.7-3.2-3.2-5.5-3.4l0,0h-0.2l0,0c-4.5,0-6.6,3.8-7.4,6.2l0,0
			c-0.2,0.6-0.4,1.1-0.4,1.1l0,0L7.7,44.5L7.7,44.5z"/>
	</g>
	<g>
		<path class="st0" d="M68.7,44c-0.2-0.6-0.6-1.7-1.3-2.6l0,0c-1.3-1.9-3.2-3.6-6.2-3.6l0,0H61l0,0c-3.4,0-6,3.6-6.8,5.7l0,0
			c-0.2,0.6-0.4,1.1-0.4,1.1l0,0l-3-1.1c0,0,0.6-2.1,2.3-4.2l0,0c1.5-2.1,4-4.5,7.9-4.7l0,0c0.2,0,0.2,0,0.4,0l0,0
			c4.3,0,7.2,2.6,8.7,4.9l0,0c1.7,2.3,2.1,4.7,2.1,4.7l0,0l0,0l-3,0.9l0,0l0,0C69.1,45.1,68.9,44.7,68.7,44L68.7,44z"/>
	</g>
</g>
</svg>
