<?xml version="1.0" encoding="utf-8"?>
<!-- Generator: Adobe Illustrator 19.2.1, SVG Export Plug-In . SVG Version: 6.00 Build 0)  -->
<svg version="1.1" id="Layer_1" xmlns="http://www.w3.org/2000/svg" xmlns:xlink="http://www.w3.org/1999/xlink" x="0px" y="0px"
	 viewBox="0 0 90 90" style="enable-background:new 0 0 90 90;" xml:space="preserve">
<style type="text/css">
	.st0{fill:#F2F2F2;}
	.st1{fill:#3B2314;}
	.st2{fill:#FFFFFF;}
	.st3{fill:none;}
</style>
<g>
	<ellipse transform="matrix(0.5544 -0.8322 0.8322 0.5544 -7.8188 70.1913)" class="st0" cx="61.6" cy="42.4" rx="11.6" ry="11.6"/>
	<ellipse transform="matrix(0.8323 -0.5544 0.5544 0.8323 -18.295 24.1785)" class="st0" cx="30.8" cy="42.3" rx="11.6" ry="11.6"/>
	<g>
		<ellipse transform="matrix(0.3909 -0.9204 0.9204 0.3909 -19.9485 57.5126)" class="st1" cx="33.5" cy="43.8" rx="5.9" ry="5.9"/>
		<path class="st2" d="M32.3,38.6l0.8,1c0,0-2.3,0.6-2.8,2.6l-1.2-0.6C28.9,41.6,29.8,39,32.3,38.6z"/>
		<path class="st2" d="M28.5,42.3l1.4,0.8c0,0-0.3,0.5-0.3,1.3l-1.5-0.1C28.2,44.3,28,43.1,28.5,42.3z"/>
	</g>
	<g>
		<ellipse transform="matrix(0.9204 -0.3909 0.3909 0.9204 -12.4814 26.4468)" class="st1" cx="58.7" cy="43.9" rx="5.9" ry="5.9"/>
		<path class="st2" d="M60,38.6l-0.8,1c0,0,2.3,0.6,2.8,2.6l1.2-0.6C63.4,41.6,62.4,39,60,38.6z"/>
		<path class="st2" d="M63.7,42.3l-1.4,0.8c0,0,0.3,0.5,0.3,1.3l1.5-0.1C64.1,44.3,64.1,43.1,63.7,42.3z"/>
	</g>
</g>
<g>
	<g>
		<line class="st3" x1="14.1" y1="70" x2="19.5" y2="57.9"/>
		<polygon points="14.6,70.2 13.5,69.7 19,57.6 20,58.1 		"/>
	</g>
	<g>
		<ellipse transform="matrix(0.4087 -0.9127 0.9127 0.4087 -45.3207 55.3912)" cx="20.1" cy="62.7" rx="2.5" ry="2.5"/>
	</g>
	<ellipse transform="matrix(0.9862 -0.1658 0.1658 0.9862 -10.2152 4.0514)" class="st0" cx="19.2" cy="63.2" rx="8" ry="8"/>
	<g>
		<ellipse transform="matrix(0.733 -0.6803 0.6803 0.733 -36.5745 30.7367)" class="st1" cx="20.9" cy="62" rx="4.1" ry="4.1"/>
		<path class="st2" d="M17.3,61.2l0.9-0.2c0,0-0.2,1.6,0.8,2.5l-0.7,0.5C18.1,64.2,16.8,62.9,17.3,61.2z"/>
		<path class="st2" d="M18.5,64.7l0.9-0.7c0,0,0.3,0.3,0.7,0.5l-0.5,0.9C19.7,65.4,18.9,65.2,18.5,64.7z"/>
	</g>
</g>
<g>
	<g>
		<line class="st3" x1="68.2" y1="70" x2="73.7" y2="57.9"/>
		<polygon points="68.7,70.2 67.7,69.7 73.1,57.6 74.1,58.1 		"/>
	</g>
	<g>
		<ellipse transform="matrix(0.4087 -0.9127 0.9127 0.4087 -13.3157 104.7923)" cx="74.2" cy="62.7" rx="2.5" ry="2.5"/>
	</g>
	<ellipse transform="matrix(0.9862 -0.1658 0.1658 0.9862 -9.4661 13.0254)" class="st0" cx="73.3" cy="63.2" rx="8" ry="8"/>
	<g>
		<ellipse transform="matrix(0.733 -0.6803 0.6803 0.733 -22.1205 67.5585)" class="st1" cx="75" cy="62" rx="4.1" ry="4.1"/>
		<path class="st2" d="M71.4,61.2l0.9-0.2c0,0-0.2,1.6,0.8,2.5l-0.7,0.5C72.3,64.2,70.9,62.9,71.4,61.2z"/>
		<path class="st2" d="M72.6,64.7l0.9-0.7c0,0,0.3,0.3,0.7,0.5l-0.5,0.9C73.8,65.4,73,65.2,72.6,64.7z"/>
	</g>
</g>
<g>
	<g>
		<line class="st3" x1="66.4" y1="13.4" x2="66.4" y2="24.3"/>
		<polygon points="65.9,13.4 66.9,13.4 66.9,24.3 65.9,24.3 		"/>
	</g>
	<g>
		<circle cx="64.3" cy="20.9" r="2"/>
	</g>
	<ellipse transform="matrix(0.8323 -0.5544 0.5544 0.8323 -0.3115 39.33)" class="st0" cx="64.8" cy="20.2" rx="6.6" ry="6.6"/>
	<g>
		<ellipse transform="matrix(0.3909 -0.9204 0.9204 0.3909 19.0088 72.1071)" class="st1" cx="64" cy="21.7" rx="3.3" ry="3.3"/>
		<path class="st2" d="M66.9,21l-0.6,0.4c0,0-0.4-1.3-1.4-1.6l0.4-0.7C65.3,19.1,66.7,19.6,66.9,21z"/>
		<path class="st2" d="M64.8,18.9l-0.4,0.8c0,0-0.3-0.1-0.7-0.1l0.1-0.9C63.7,18.7,64.4,18.6,64.8,18.9z"/>
	</g>
</g>
<g>
	<g>
		<line class="st3" x1="38.4" y1="54.5" x2="54.5" y2="70.5"/>
		<polygon points="37.8,55.1 39.2,53.7 55.3,69.8 53.9,71.2 		"/>
	</g>
	<g>
		<ellipse transform="matrix(0.7071 -0.7071 0.7071 0.7071 -34.8274 52.9286)" cx="46.5" cy="68.5" rx="4.2" ry="4.2"/>
	</g>
	
		<ellipse transform="matrix(0.1965 -0.9805 0.9805 0.1965 -28.2834 98.8593)" class="st0" cx="46.2" cy="66.7" rx="13.8" ry="13.8"/>
	<g>
		<ellipse transform="matrix(0.9273 -0.3744 0.3744 0.9273 -22.8485 22.7603)" class="st1" cx="47.2" cy="70.2" rx="7" ry="7"/>
		<path class="st2" d="M50.5,64.9l-0.2,1.5c0,0-2.5-1.4-4.5-0.2l-0.4-1.5C45.2,64.4,48.1,63,50.5,64.9z"/>
		<path class="st2" d="M44.2,64.8l0.5,1.8c0,0-0.6,0.2-1.3,0.9L42.3,66C42.4,66.1,43.2,65,44.2,64.8z"/>
	</g>
</g>
<g>
	<g>
		<line class="st3" x1="51.1" y1="16.9" x2="42.3" y2="16.9"/>
		<polygon points="51.1,17.2 51.1,16.4 42.3,16.4 42.3,17.2 		"/>
	</g>
	<g>
		<circle cx="45" cy="18.5" r="1.7"/>
	</g>
	<ellipse transform="matrix(0.5544 -0.8322 0.8322 0.5544 5.2148 45.997)" class="st0" cx="45.6" cy="18.1" rx="5.4" ry="5.4"/>
	<g>
		<ellipse transform="matrix(0.9204 -0.3909 0.3909 0.9204 -3.8355 18.7824)" class="st1" cx="44.2" cy="18.8" rx="2.7" ry="2.7"/>
		<path class="st2" d="M44.8,16.4l-0.4,0.5c0,0,1.1,0.3,1.3,1.2l0.5-0.3C46.4,17.7,45.9,16.6,44.8,16.4z"/>
		<path class="st2" d="M46.5,18.1l-0.6,0.4c0,0,0.1,0.2,0.1,0.6l0.7-0.1C46.7,19,46.7,18.5,46.5,18.1z"/>
	</g>
</g>
<g>
	<g>
		<line class="st3" x1="23.3" y1="26.4" x2="31.7" y2="23.6"/>
		<polygon points="23.2,26.1 23.5,26.8 31.9,24 31.6,23.3 		"/>
	</g>
	<g>
		<ellipse transform="matrix(0.9472 -0.3206 0.3206 0.9472 -5.8438 10.3689)" cx="28.6" cy="22.9" rx="1.7" ry="1.7"/>
	</g>
	<ellipse transform="matrix(0.2584 -0.966 0.966 0.2584 -1.7637 44.6359)" class="st0" cx="28.2" cy="23.5" rx="5.4" ry="5.4"/>
	<g>
		<ellipse transform="matrix(0.7465 -0.6653 0.6653 0.7465 -7.4831 25.1319)" class="st1" cx="29.2" cy="22.4" rx="2.7" ry="2.7"/>
		<path class="st2" d="M29.5,24.9l0.2-0.6c0,0-1.1,0.1-1.6-0.7l-0.4,0.4C27.5,24.1,28.4,25.1,29.5,24.9z"/>
		<path class="st2" d="M27.3,23.8l0.5-0.5c0,0-0.2-0.2-0.3-0.5L26.9,23C26.9,23,27,23.5,27.3,23.8z"/>
	</g>
</g>
<g>
	<g>
		<line class="st3" x1="49.9" y1="12.2" x2="52" y2="11.5"/>
		<polygon points="49.8,12.1 49.9,12.3 52.1,11.6 52,11.4 		"/>
	</g>
	<g>
		<ellipse transform="matrix(0.9472 -0.3206 0.3206 0.9472 -0.9241 17.0111)" cx="51.2" cy="11.3" rx="0.4" ry="0.4"/>
	</g>
	<ellipse transform="matrix(0.2584 -0.966 0.966 0.2584 26.8391 57.8621)" class="st0" cx="51.1" cy="11.5" rx="1.4" ry="1.4"/>
	<g>
		<ellipse transform="matrix(0.7465 -0.6653 0.6653 0.7465 5.5899 37.0157)" class="st1" cx="51.4" cy="11.2" rx="0.7" ry="0.7"/>
		<path class="st2" d="M51.4,11.8l0-0.1c0,0-0.3,0-0.4-0.2L51,11.6C50.9,11.6,51.1,11.9,51.4,11.8z"/>
		<path class="st2" d="M50.9,11.5l0.1-0.1c0,0,0,0-0.1-0.1l-0.2,0.1C50.8,11.3,50.8,11.5,50.9,11.5z"/>
	</g>
</g>
<g>
	<g>
		<line class="st3" x1="48.7" y1="6.1" x2="43.8" y2="6.1"/>
		<polygon points="48.7,6.3 48.7,5.8 43.8,5.8 43.8,6.3 		"/>
	</g>
	<g>
		<circle cx="45.3" cy="7" r="0.9"/>
	</g>
	<ellipse transform="matrix(0.5544 -0.8322 0.8322 0.5544 14.6787 40.9717)" class="st0" cx="45.6" cy="6.8" rx="3" ry="3"/>
	<g>
		<ellipse transform="matrix(0.9204 -0.3909 0.3909 0.9204 0.7704 18.1029)" class="st1" cx="44.9" cy="7.2" rx="1.5" ry="1.5"/>
		<path class="st2" d="M45.2,5.8L45,6.1c0,0,0.6,0.2,0.7,0.7L46,6.6C46.1,6.6,45.8,5.9,45.2,5.8z"/>
		<path class="st2" d="M46.1,6.8L45.8,7c0,0,0.1,0.1,0.1,0.3l0.4,0C46.2,7.3,46.2,7,46.1,6.8z"/>
	</g>
</g>
<g>
	<g>
		<line class="st3" x1="36.8" y1="19.4" x2="36.8" y2="14.5"/>
		<polygon points="36.6,19.4 37,19.4 37,14.5 36.6,14.5 		"/>
	</g>
	<g>
		<circle cx="35.8" cy="16" r="0.9"/>
	</g>
	<ellipse transform="matrix(0.5544 -0.8322 0.8322 0.5544 2.4701 37.2935)" class="st0" cx="36.1" cy="16.3" rx="3" ry="3"/>
	<g>
		<ellipse transform="matrix(0.9204 -0.3909 0.3909 0.9204 -3.2551 15.1889)" class="st1" cx="35.7" cy="15.6" rx="1.5" ry="1.5"/>
		<path class="st2" d="M37,15.9l-0.3-0.2c0,0-0.2,0.6-0.7,0.7l0.2,0.3C36.3,16.8,36.9,16.5,37,15.9z"/>
		<path class="st2" d="M36.1,16.9l-0.2-0.4c0,0-0.1,0.1-0.3,0.1l0,0.4C35.6,17,35.9,17,36.1,16.9z"/>
	</g>
</g>
<g>
	<g>
		<line class="st3" x1="41.4" y1="25.2" x2="37.1" y2="27.7"/>
		<polygon points="41.5,25.4 41.3,25 37,27.5 37.2,27.8 		"/>
	</g>
	<g>
		<ellipse transform="matrix(0.8644 -0.5028 0.5028 0.8644 -8.6464 23.314)" cx="38.9" cy="27.7" rx="0.9" ry="0.9"/>
	</g>
	
		<ellipse transform="matrix(6.085217e-02 -0.9981 0.9981 6.085217e-02 9.3733 64.6735)" class="st0" cx="39.1" cy="27.4" rx="3" ry="3"/>
	<g>
		<ellipse transform="matrix(0.5991 -0.8007 0.8007 0.5991 -6.995 42.154)" class="st1" cx="38.6" cy="28.1" rx="1.5" ry="1.5"/>
		<path class="st2" d="M38.2,26.7l0,0.3c0,0,0.6-0.2,1,0.2l0.2-0.3C39.3,26.9,38.8,26.5,38.2,26.7z"/>
		<path class="st2" d="M39.5,27.1l-0.2,0.4c0,0,0.1,0.1,0.2,0.3l0.3-0.2C39.8,27.5,39.7,27.2,39.5,27.1z"/>
	</g>
</g>
<g>
	<g>
		<line class="st3" x1="56.2" y1="26.4" x2="51.2" y2="26.4"/>
		<polygon points="56.2,26.6 56.2,26.1 51.2,26.1 51.2,26.6 		"/>
	</g>
	<g>
		<circle cx="52.8" cy="27.3" r="0.9"/>
	</g>
	<ellipse transform="matrix(0.5544 -0.8322 0.8322 0.5544 1.1147 56.2508)" class="st0" cx="53.1" cy="27.1" rx="3" ry="3"/>
	<g>
		<ellipse transform="matrix(0.9204 -0.3909 0.3909 0.9204 -6.572 22.6455)" class="st1" cx="52.3" cy="27.5" rx="1.5" ry="1.5"/>
		<path class="st2" d="M52.7,26.1l-0.2,0.3c0,0,0.6,0.2,0.7,0.7l0.3-0.2C53.5,26.9,53.3,26.2,52.7,26.1z"/>
		<path class="st2" d="M53.6,27.1l-0.4,0.2c0,0,0.1,0.1,0.1,0.3l0.4,0C53.7,27.6,53.7,27.3,53.6,27.1z"/>
	</g>
</g>
<g>
	<g>
		<line class="st3" x1="43" y1="31.7" x2="45.9" y2="35.7"/>
		<polygon points="43.1,31.6 42.8,31.9 45.7,35.8 46.1,35.6 		"/>
	</g>
	<g>
		<ellipse transform="matrix(0.8019 -0.5974 0.5974 0.8019 -11.1899 34.0313)" cx="45.7" cy="33.9" rx="0.9" ry="0.9"/>
	</g>
	
		<ellipse transform="matrix(0.9986 -5.257594e-02 5.257594e-02 0.9986 -1.7133 2.4326)" class="st0" cx="45.4" cy="33.8" rx="3" ry="3"/>
	<g>
		<ellipse transform="matrix(0.5046 -0.8634 0.8634 0.5046 -6.6329 56.7507)" class="st1" cx="46.1" cy="34.2" rx="1.5" ry="1.5"/>
		<path class="st2" d="M44.9,34.7l0.3,0c0,0-0.2-0.6,0.1-1L45,33.6C44.9,33.5,44.6,34.1,44.9,34.7z"/>
		<path class="st2" d="M45.1,33.4l0.4,0.2c0,0,0.1-0.1,0.2-0.2L45.4,33C45.4,33,45.2,33.2,45.1,33.4z"/>
	</g>
</g>
</svg>
