<?xml version="1.0" encoding="utf-8"?>
<!-- Generator: Adobe Illustrator 19.2.1, SVG Export Plug-In . SVG Version: 6.00 Build 0)  -->
<svg version="1.1" id="Layer_1" xmlns="http://www.w3.org/2000/svg" xmlns:xlink="http://www.w3.org/1999/xlink" x="0px" y="0px"
	 viewBox="0 0 90 90" style="enable-background:new 0 0 90 90;" xml:space="preserve">
<style type="text/css">
	.st0{fill:#808080;}
</style>
<path class="st0" d="M72.6,41.7c0,0-13.1,15.3-9.9,17.3c3.2,2,13.7-15,13.7-15s5.2,1.1,7.6-1.9c2.4-3,0.4-7.1-1.5-8.9
	c-1.9-1.9-7.5-3.8-10.2-0.6C69.6,35.8,70.1,38.4,72.6,41.7z"/>
<path class="st0" d="M17.4,41.7c0,0,13.1,15.3,9.9,17.3c-3.2,2-13.7-15-13.7-15S8.4,45.1,6,42.1c-2.4-3-0.4-7.1,1.5-8.9
	c1.9-1.9,7.5-3.8,10.2-0.6C20.4,35.8,19.9,38.4,17.4,41.7z"/>
</svg>
