<?xml version="1.0" encoding="utf-8"?>
<!-- Generator: Adobe Illustrator 19.2.1, SVG Export Plug-In . SVG Version: 6.00 Build 0)  -->
<svg version="1.1" id="Layer_1" xmlns="http://www.w3.org/2000/svg" xmlns:xlink="http://www.w3.org/1999/xlink" x="0px" y="0px"
	 viewBox="0 0 70 70" style="enable-background:new 0 0 70 70;" xml:space="preserve">
<style type="text/css">
	.st0{fill:#BE1E2D;}
	.st1{opacity:0.5;}
	.st2{fill:#3B2314;}
</style>
<g>
	<path class="st0" d="M21,36.4c0,0,1.8,7.9-4.8,11c0,0-20.6-4.9-13.3-24.7C2.9,22.6,10.4,40,21,36.4z"/>
	<g class="st1">
		<path class="st2" d="M15.4,40.1c0.4-0.8,0.5-1.4,0.5-2l0,0c0-0.8-0.4-1.6-0.4-1.6l0.7,0.2c0,0,0.2,0.5,0.2,1.5l0,0
			c0,0.6-0.1,1.4-0.5,2.2l0,0L15.4,40.1L15.4,40.1z"/>
	</g>
	<g class="st1">
		<path class="st2" d="M13.2,39.2c0.4-0.8,0.5-1.4,0.5-2l0,0c0-0.8-0.2-1.6-0.2-1.6l0.6,0.3c0.2,0.4,0.2,0.4,0.2,1.3l0,0
			c0,0.6-0.1,1.4-0.5,2.2l0,0L13.2,39.2L13.2,39.2z"/>
	</g>
</g>
<g>
	<path class="st0" d="M49,36.4c0,0-1.8,7.9,4.8,11c0,0,20.6-4.9,13.3-24.7C67,22.6,59.6,40,49,36.4z"/>
	<g class="st1">
		<path class="st2" d="M54.6,40.1c-0.4-0.8-0.5-1.4-0.5-2l0,0c0-0.8,0.4-1.6,0.4-1.6l-0.7,0.2c0,0-0.2,0.5-0.2,1.5l0,0
			c0,0.6,0.1,1.4,0.5,2.2l0,0L54.6,40.1L54.6,40.1z"/>
	</g>
	<g class="st1">
		<path class="st2" d="M56.8,39.2c-0.4-0.8-0.5-1.4-0.5-2l0,0c0-0.8,0.2-1.6,0.2-1.6l-0.6,0.3c-0.2,0.4-0.2,0.4-0.2,1.3l0,0
			c0,0.6,0.1,1.4,0.5,2.2l0,0L56.8,39.2L56.8,39.2z"/>
	</g>
</g>
</svg>
