<?xml version="1.0" encoding="utf-8"?>
<!-- Generator: Adobe Illustrator 19.2.1, SVG Export Plug-In . SVG Version: 6.00 Build 0)  -->
<svg version="1.1" id="Layer_1" xmlns="http://www.w3.org/2000/svg" xmlns:xlink="http://www.w3.org/1999/xlink" x="0px" y="0px"
	 viewBox="0 0 70 70" style="enable-background:new 0 0 70 70;" xml:space="preserve">
<style type="text/css">
	.st0{fill:#3B2314;}
	.st1{fill:#D91C5C;}
</style>
<g>
	<path class="st0" d="M56.5,35.3c-3.2,2.5-11,7.4-22,7.1c-0.2,0-0.4,0-0.6,0c-3.1-0.1-5.8-0.6-8.2-1.3c-0.1,0.2-0.2,0.4-0.3,0.7
		c2.5,0.7,5.3,1.3,8.5,1.4c0.2,0,0.4,0,0.6,0c13.2,0.4,21.8-6.6,23.8-8.3l-0.4-0.6C57.6,34.5,57.1,34.9,56.5,35.3z"/>
	<path class="st0" d="M14,34.6c-0.5-0.5-0.9-0.9-1.1-1.1l-0.5,0.6c0.5,0.5,1.6,1.7,3.4,3c0.2-0.2,0.3-0.4,0.5-0.5
		C15.3,35.8,14.5,35.1,14,34.6z"/>
	<path class="st0" d="M12.7,33.2c0,0,0.1,0.1,0.2,0.2l2-2.6l-0.6-0.4l-4.3,5.7l0.6,0.4l1.9-2.5c-0.2-0.2-0.3-0.3-0.3-0.3L12.7,33.2z
		"/>
	<path class="st0" d="M12.7,33.2l-0.6,0.5c0,0,0.1,0.1,0.3,0.3l0.5-0.6C12.7,33.3,12.7,33.2,12.7,33.2z"/>
	<path class="st0" d="M59.9,36.1l-3.1-4.7l-0.6,0.4l1.6,2.5c0.2-0.2,0.3-0.3,0.3-0.3l0.5,0.5c0,0-0.1,0.1-0.4,0.4l1.1,1.6L59.9,36.1
		z"/>
	<path class="st0" d="M58.7,34.5L58.2,34c0,0-0.1,0.1-0.3,0.3l0.4,0.6C58.5,34.6,58.7,34.5,58.7,34.5z"/>
	<path class="st1" d="M16.8,44.7l-0.6-0.4l3.5-4.7c-1.6-0.8-2.9-1.7-4-2.5c-3.2,3.6-8.1,10.4-3.2,14c5.2,3.9,10.5-4.9,12.7-9.2
		c-1.8-0.5-3.5-1.2-4.9-1.9L16.8,44.7z"/>
	<path class="st0" d="M20.9,39.3l-0.4,0.6c1.4,0.7,3.1,1.4,4.9,1.9c0.1-0.2,0.2-0.5,0.3-0.7C23.9,40.6,22.3,39.9,20.9,39.3z"/>
	<path class="st0" d="M20.2,38.9c-0.9-0.4-1.6-0.9-2.3-1.3c-0.6-0.4-1.1-0.7-1.6-1.1c-0.2,0.2-0.3,0.4-0.5,0.5
		c1.1,0.8,2.4,1.7,4,2.5L20.2,38.9z"/>
	<path class="st0" d="M16.3,44.3l0.6,0.4l3.6-4.8c-0.2-0.1-0.4-0.2-0.7-0.3L16.3,44.3z"/>
	<path class="st0" d="M19.8,39.5c0.2,0.1,0.4,0.2,0.7,0.3l0.4-0.6c-0.2-0.1-0.4-0.2-0.7-0.3L19.8,39.5z"/>
</g>
</svg>
