<?xml version="1.0" encoding="utf-8"?>
<!-- Generator: Adobe Illustrator 19.2.1, SVG Export Plug-In . SVG Version: 6.00 Build 0)  -->
<svg version="1.1" id="Layer_1" xmlns="http://www.w3.org/2000/svg" xmlns:xlink="http://www.w3.org/1999/xlink" x="0px" y="0px"
	 viewBox="0 0 70 70" style="enable-background:new 0 0 70 70;" xml:space="preserve">
<style type="text/css">
	.st0{fill:#3B2314;}
	.st1{fill:#F2F2F2;}
	.st2{fill:#D91C5C;}
</style>
<g>
	<path class="st0" d="M55.3,35.1c0-3.5-1.3-6.7-4.1-9.2l-2.9,6.9l-5.3-2l2.3-8c-2.8-0.8-6.2-1.2-10.3-1.1c-4,0.2-7.4,0.7-10.2,1.6
		l1.3,8.5l-5.6,0.7l-1.8-6.1c-2.8,2.3-4.1,5.3-4.1,8.7c0,3.5,2,6.6,5.3,9c2.6-2.3,9.6-7.8,14.7-4c0,0,7.1-4.5,15.1,4.2
		C53.2,42,55.3,38.7,55.3,35.1z"/>
	<path class="st1" d="M26,31.8l-1.3-8.5c-2.5,0.8-4.6,1.8-6.1,3.1l1.8,6.1L26,31.8z"/>
	<path class="st1" d="M48.3,32.8l2.9-6.9c-1.5-1.3-3.5-2.4-6-3.1l-2.3,8L48.3,32.8z"/>
	<path class="st2" d="M34.5,40.2c-5.1-3.8-12.1,1.7-14.7,4c3.7,2.7,9.1,4.4,15.1,4.4c5.8,0,11-1.6,14.7-4.1
		C41.5,35.6,34.5,40.2,34.5,40.2z"/>
</g>
</svg>
