<?xml version="1.0" encoding="utf-8"?>
<!-- Generator: Adobe Illustrator 19.2.1, SVG Export Plug-In . SVG Version: 6.00 Build 0)  -->
<svg version="1.1" id="Layer_1" xmlns="http://www.w3.org/2000/svg" xmlns:xlink="http://www.w3.org/1999/xlink" x="0px" y="0px"
	 viewBox="0 0 70 70" style="enable-background:new 0 0 70 70;" xml:space="preserve">
<style type="text/css">
	.st0{fill:#3B2314;}
	.st1{fill:#F2F2F2;}
	.st2{fill:#D91C5C;}
</style>
<g>
	<path class="st0" d="M34.8,39.1c0,0,5.6-5.8,12.9,3.1c7.2-7.1,8.7-19.3,8.7-19.3H53c-3,10-7.9,4.8-7.9,4.8c-3.2,3-6.7-0.7-6.7-0.7
		c-2.3,4.1-6.9,0-6.9,0c-2.8,4.6-6.2-0.5-6.2-0.5S25,29.3,21.7,29c-2-0.1-3.3-3.6-4-6.2h-4.1c0,0,2.1,11.9,9.4,19
		C26.1,39.1,31,35.4,34.8,39.1z"/>
	<path class="st1" d="M21.9,29.2c3.2,0.2,3.5-2.5,3.5-2.5s3.5,5.1,6.2,0.5c0,0,4.6,4.1,6.9,0c0,0,3.5,3.7,6.7,0.7c0,0,5,5.1,7.9-4.8
		H17.9C18.6,25.6,19.9,29,21.9,29.2z"/>
	<path class="st2" d="M47.7,42.2c-7.3-8.9-12.9-3.1-12.9-3.1c-3.9-3.7-8.7,0-11.6,2.9c3.1,3,7.2,5.2,12.5,5.2
		C40.9,47.1,44.8,45.1,47.7,42.2z"/>
</g>
</svg>
