<?xml version="1.0" encoding="utf-8"?>
<!-- Generator: Adobe Illustrator 19.2.1, SVG Export Plug-In . SVG Version: 6.00 Build 0)  -->
<svg version="1.1" id="Layer_1" xmlns="http://www.w3.org/2000/svg" xmlns:xlink="http://www.w3.org/1999/xlink" x="0px" y="0px"
	 viewBox="0 0 70 70" style="enable-background:new 0 0 70 70;" xml:space="preserve">
<style type="text/css">
	.st0{fill:#3B2314;}
	.st1{fill:#F2F2F2;}
</style>
<g>
	<path class="st0" d="M49.9,22.2c0.1,0.1,0.1,0.2,0.1,0.2l-4.5,8.4l-3.8-9.5l-3.8,9l-3.9-9l-4.4,9.2l-3.8-9.2l-3.6,9.6L18.8,23
		c-1.3,1.3-2.1,3-2.1,5v13.7c0,2.4,1.2,4.5,3.1,5.8l3.6-9.3l3.6,9.6l3.8-9.2l4.4,9.2l3.9-9l3.8,9l3.8-9.5l4.5,8.4
		c1.3-1.3,2.2-3.1,2.2-5.1V28.2C53.3,25.7,51.9,23.5,49.9,22.2z"/>
	<path class="st1" d="M25.8,21.4l3.8,9.2l4.4-9.2l3.9,9l3.8-9l3.8,9.5l4.5-8.4c0,0,0-0.1-0.1-0.2c-1-0.6-2.3-1-3.6-1H23.6
		c-1.9,0-3.6,0.8-4.9,2l3.4,7.8L25.8,21.4z"/>
	<path class="st1" d="M42.8,47.9l-3.8-9l-3.9,9l-4.4-9.2l-3.8,9.2l-3.6-9.6l-3.6,9.3c1.1,0.8,2.5,1.2,3.9,1.2h22.7
		c1.9,0,3.6-0.7,4.8-1.9l-4.5-8.4L42.8,47.9z"/>
</g>
</svg>
