<?xml version="1.0" encoding="utf-8"?>
<!-- Generator: Adobe Illustrator 19.2.1, SVG Export Plug-In . SVG Version: 6.00 Build 0)  -->
<svg version="1.1" id="Layer_1" xmlns="http://www.w3.org/2000/svg" xmlns:xlink="http://www.w3.org/1999/xlink" x="0px" y="0px"
	 viewBox="0 0 80 80" style="enable-background:new 0 0 80 80;" xml:space="preserve">
<style type="text/css">
	.st0{fill:#F2F2F2;}
	.st1{fill:#3B2314;}
</style>
<g>
	<path class="st0" d="M60,54.9c0,0,5.1,0.4,9.7-4.6l-5-8.2c-2.2,1.2-5.1,2.6-8.6,3.8L60,54.9z"/>
	<path class="st1" d="M39.8,47.9c-0.3,0-0.5,0-0.8,0c-9,0-15.9-2.1-20.4-4.2c-2.3-1-4-2.1-5.1-2.9c-0.7-0.5-1.1-0.8-1.4-1l-0.5,0.6
		c1.7,1.4,10.9,8.2,27.4,8.2c0.3,0,0.5,0,0.8,0c6.4-0.1,11.8-1.2,16.3-2.7l-0.3-0.7C51.4,46.7,46.1,47.9,39.8,47.9z"/>
	<path class="st1" d="M68.7,38.7c-0.3,0.3-0.8,0.6-1.5,1.1s-1.7,1.1-2.8,1.7l0.4,0.6c2.3-1.3,3.8-2.4,4.4-2.9L68.7,38.7z"/>
	<path class="st1" d="M55.8,45.3l0.3,0.7c3.6-1.2,6.5-2.6,8.6-3.8l-0.4-0.6C62.2,42.8,59.3,44.1,55.8,45.3z"/>
	<path class="st1" d="M11.3,40.2L11.3,40.2L11.3,40.2l0.5-0.5c0,0,0.1,0.1,0.3,0.2l2.3-2.6l-0.5-0.5l-5.1,5.8l0.5,0.5l2.3-2.6
		C11.4,40.3,11.3,40.2,11.3,40.2L11.3,40.2z"/>
	<path class="st1" d="M11.3,40.2L11.3,40.2L11.3,40.2z"/>
	<path class="st1" d="M11.8,39.7l-0.5,0.5c0,0,0.1,0.1,0.3,0.2l0.5-0.6C11.9,39.7,11.8,39.7,11.8,39.7z"/>
	<path class="st1" d="M69.6,38.9c0,0-0.1,0.1-0.4,0.3l1.5,1.7l0.5-0.5L67,35.8l-0.5,0.5l2.2,2.4c0.3-0.2,0.4-0.3,0.4-0.3L69.6,38.9z
		"/>
	<path class="st1" d="M69.6,38.9l-0.5-0.6c0,0-0.1,0.1-0.4,0.3l0.5,0.5C69.4,39,69.6,38.9,69.6,38.9z"/>
</g>
</svg>
